/* XPM */
static char * icon_TelldusCenter_32x32_xpm[] = {
"32 32 319 2",
"  	c None",
". 	c #8EA0C3",
"+ 	c #97AACF",
"@ 	c #99ACD2",
"# 	c #96AACF",
"$ 	c #8FA1C5",
"% 	c #8DA0C5",
"& 	c #92A6CC",
"* 	c #8CA0C5",
"= 	c #91A6CB",
"- 	c #8FA4C9",
"; 	c #93A9D1",
"> 	c #899EC3",
", 	c #899FC4",
"' 	c #899EC4",
") 	c #93A9D2",
"! 	c #8CA5CD",
"~ 	c #859BC2",
"{ 	c #859CC2",
"] 	c #8DA6CE",
"^ 	c #89A3CD",
"/ 	c #829AC2",
"( 	c #7E97BF",
"_ 	c #7A94BD",
": 	c #7F98C1",
"< 	c #89A4CE",
"[ 	c #86A2CB",
"} 	c #7F99C0",
"| 	c #7F9AC0",
"1 	c #7F98C0",
"2 	c #7691BB",
"3 	c #94AACB",
"4 	c #BBC8DE",
"5 	c #829CC2",
"6 	c #7893BD",
"7 	c #809AC0",
"8 	c #86A2CC",
"9 	c #83A0CB",
"0 	c #7C98C0",
"a 	c #7D98C0",
"b 	c #7A95BE",
"c 	c #7491BC",
"d 	c #A4B7D2",
"e 	c #F1F4F9",
"f 	c #FFFFFF",
"g 	c #DCE3ED",
"h 	c #88A0C5",
"i 	c #83A1CB",
"j 	c #819FCA",
"k 	c #7A96BF",
"l 	c #7A97BF",
"m 	c #7391BB",
"n 	c #7795BE",
"o 	c #BDCBDF",
"p 	c #FCFCFE",
"q 	c #EAEFF5",
"r 	c #95ACCC",
"s 	c #6E8EBA",
"t 	c #7896BE",
"u 	c #7E9FCA",
"v 	c #7896BF",
"w 	c #7796BF",
"x 	c #6E8EBB",
"y 	c #84A0C5",
"z 	c #D8E0ED",
"A 	c #F7F9FB",
"B 	c #A6BAD5",
"C 	c #6F90BB",
"D 	c #7594BE",
"E 	c #7F9FCA",
"F 	c #7C9ECA",
"G 	c #7695BF",
"H 	c #7696BF",
"I 	c #7393BE",
"J 	c #6B8DBA",
"K 	c #9BB2D1",
"L 	c #EDF2F7",
"M 	c #FDFEFE",
"N 	c #B8C8DE",
"O 	c #7091BC",
"P 	c #7D9ECA",
"Q 	c #7A9DC9",
"R 	c #7495BE",
"S 	c #6E90BC",
"T 	c #7093BD",
"U 	c #B6C7DD",
"V 	c #FEFEFF",
"W 	c #CDD9E8",
"X 	c #7898C0",
"Y 	c #6C8FBB",
"Z 	c #7B9EC9",
"` 	c #7A9ECA",
" .	c #7295BF",
"..	c #7195BF",
"+.	c #6E92BD",
"@.	c #81A1C5",
"#.	c #D5E0EC",
"$.	c #E4EAF2",
"%.	c #87A5C8",
"&.	c #6D92BC",
"*.	c #7B9FCA",
"=.	c #6F9AC7",
"-.	c #7196C0",
";.	c #7296C0",
">.	c #6C92BD",
",.	c #799CC4",
"'.	c #DEE6F0",
").	c #FAFBFD",
"!.	c #FEFEFE",
"~.	c #D7E1ED",
"{.	c #C4D5E5",
"].	c #D4DFEB",
"^.	c #EFF3F8",
"/.	c #FCFDFE",
"(.	c #F9FBFC",
"_.	c #E3EAF2",
":.	c #7D9FC5",
"<.	c #6D92BD",
"[.	c #6F95BF",
"}.	c #6C98C7",
"|.	c #548DBE",
"1.	c #598AB7",
"2.	c #6590BC",
"3.	c #6B93BE",
"4.	c #7498C1",
"5.	c #84A4C8",
"6.	c #86A6C9",
"7.	c #E4EBF3",
"8.	c #C2D2E4",
"9.	c #A9C1D9",
"0.	c #A1B9D5",
"a.	c #90ADCE",
"b.	c #AAC2DA",
"c.	c #F3F6FA",
"d.	c #DCE5F0",
"e.	c #82A3C8",
"f.	c #85A5C8",
"g.	c #7398C1",
"h.	c #6991BD",
"i.	c #618EBA",
"j.	c #5689B6",
"k.	c #528CBE",
"l.	c #5690C0",
"m.	c #5187B5",
"n.	c #5188B5",
"o.	c #558AB7",
"p.	c #5A8CB8",
"q.	c #5888B6",
"r.	c #5F8EBA",
"s.	c #DCE6F0",
"t.	c #D4E1EC",
"u.	c #B2C8DE",
"v.	c #C6D6E6",
"w.	c #E0E8F1",
"x.	c #B3C8DE",
"y.	c #85A8CA",
"z.	c #D2DFEC",
"A.	c #5A89B7",
"B.	c #5688B7",
"C.	c #578AB7",
"D.	c #5389B6",
"E.	c #5790C1",
"F.	c #5B94C2",
"G.	c #578CB8",
"H.	c #568BB8",
"I.	c #558BB8",
"J.	c #5188B6",
"K.	c #DAE5EF",
"L.	c #D8E3EE",
"M.	c #BBCEE1",
"N.	c #A7C0D9",
"O.	c #81A7CA",
"P.	c #C6D8E7",
"Q.	c #C7D8E7",
"R.	c #7AA3C6",
"S.	c #CEDDEB",
"T.	c #5087B6",
"U.	c #528AB7",
"V.	c #568CB8",
"W.	c #5B93C3",
"X.	c #6097C7",
"Y.	c #5B8FBC",
"Z.	c #5B90BC",
"`.	c #588EBB",
" +	c #5A8FBB",
".+	c #DAE5F0",
"++	c #D5E2ED",
"@+	c #9BBBD6",
"#+	c #C4D7E7",
"$+	c #DBE7F0",
"%+	c #79A4C8",
"&+	c #CADBE9",
"*+	c #AAC5DB",
"=+	c #99B9D5",
"-+	c #CFDFEB",
";+	c #568CB9",
">+	c #598FBB",
",+	c #6098C7",
"'+	c #649AC9",
")+	c #5F92BE",
"!+	c #5C90BD",
"~+	c #EBF1F7",
"{+	c #C7D9E8",
"]+	c #8CB1D0",
"^+	c #96B8D4",
"/+	c #DFE9F2",
"(+	c #7FA8CB",
"_+	c #DEE9F2",
":+	c #82AACC",
"<+	c #E7EFF5",
"[+	c #D1E0EC",
"}+	c #5A8FBC",
"|+	c #5D91BD",
"1+	c #659CC9",
"2+	c #689ECB",
"3+	c #6395C1",
"4+	c #6093C0",
"5+	c #DCE7F1",
"6+	c #DAE6F0",
"7+	c #CEDEEC",
"8+	c #FBFCFD",
"9+	c #94B7D4",
"0+	c #BFD4E5",
"a+	c #A7C4DC",
"b+	c #C1D5E6",
"c+	c #A1C0D9",
"d+	c #C5D7E8",
"e+	c #D2E1ED",
"f+	c #5D92BF",
"g+	c #6194C0",
"h+	c #699ECC",
"i+	c #6CA2CD",
"j+	c #6699C3",
"k+	c #6397C2",
"l+	c #E2ECF3",
"m+	c #ECF3F8",
"n+	c #6799C3",
"o+	c #4E89B9",
"p+	c #C3D6E7",
"q+	c #D5E3EE",
"r+	c #98BAD6",
"s+	c #BFD5E6",
"t+	c #AAC6DD",
"u+	c #B2CBE1",
"v+	c #D3E2EE",
"w+	c #6296C1",
"x+	c #6498C2",
"y+	c #6CA2CF",
"z+	c #70A6D0",
"A+	c #6A9DC5",
"B+	c #679BC4",
"C+	c #E2ECF4",
"D+	c #EFF4F9",
"E+	c #76A5CA",
"F+	c #5C94C0",
"G+	c #C6D9E9",
"H+	c #EDF3F8",
"I+	c #CBDDEB",
"J+	c #D6E4EF",
"K+	c #C9DBEA",
"L+	c #C3D7E8",
"M+	c #C3D8E8",
"N+	c #D3E3EE",
"O+	c #669AC3",
"P+	c #689CC4",
"Q+	c #70A6D1",
"R+	c #73AAD4",
"S+	c #6DA1C8",
"T+	c #6A9FC7",
"U+	c #6DA0C9",
"V+	c #E4EDF5",
"W+	c #EEF4F9",
"X+	c #E1EBF3",
"Y+	c #DBE7F1",
"Z+	c #699DC6",
"`+	c #6BA0C7",
" @	c #73ABD4",
".@	c #77ADD6",
"+@	c #71A4CB",
"@@	c #70A4CA",
"#@	c #6FA3CB",
"$@	c #B6D0E4",
"%@	c #D3E2EF",
"&@	c #D5E4F0",
"*@	c #D7E6F1",
"=@	c #D0E1EE",
"-@	c #CFE0ED",
";@	c #CFE0EE",
">@	c #D1E1EE",
",@	c #B0CCE2",
"'@	c #6DA1CA",
")@	c #70A4CB",
"!@	c #78AED7",
"~@	c #7AB1D9",
"{@	c #75A8CD",
"]@	c #6FA4CB",
"^@	c #6EA3CB",
"/@	c #74A8CD",
"(@	c #7CB1D9",
"_@	c #7FB5DC",
":@	c #79ABD0",
"<@	c #79ACD0",
"[@	c #78ABCF",
"}@	c #80B6DC",
"|@	c #85BBE1",
"1@	c #7CAFD2",
"2@	c #7DAFD3",
"3@	c #85BCE1",
"4@	c #82B5D7",
"5@	c #85BADD",
"6@	c #80B3D6",
"7@	c #81B4D6",
"8@	c #84B9DC",
"9@	c #87BADC",
"0@	c #8EC5E8",
"a@	c #8DC3E6",
"b@	c #8EC5E7",
"c@	c #88BCDE",
"d@	c #415B6B",
"                                                                ",
"                                                                ",
"      . + @ @ @ @ @ @ @ @ @ @ @ @ @ @ @ @ @ @ @ @ @ @ # $       ",
"    % & * % % % % % % % % % % % % % % % % % % % % % % * = -     ",
"    ; > , ' ' ' ' ' ' ' ' ' ' ' ' ' ' ' ' ' ' ' ' ' ' , > )     ",
"    ! ~ ~ ~ ~ ~ ~ ~ ~ ~ ~ ~ ~ { { { ~ ~ ~ ~ ~ ~ ~ ~ ~ ~ ~ ]     ",
"    ^ / / / / / / / / / / / / ( _ : / / / / / / / / / / / <     ",
"    [ } } } } } } } } } | 1 2 3 4 5 6 7 } } } } } } } } } 8     ",
"    9 0 0 0 0 0 0 0 0 a b c d e f g h c 0 0 0 0 0 0 0 0 0 i     ",
"    j k k k k k k k l m n o p f f f q r s t k k k k k k k j     ",
"    u v v v v v v w x y z f f f f f f A B C D v v v v v v E     ",
"    F G G G G H I J K L f f f f f f f f M N O O H G G G G P     ",
"    Q R R R R S T U V f f f f f f f f f f f W X Y R R R R Z     ",
"    `  ... .+.@.#.f f f f f f f f f f f f f f $.%.&. ... .*.    ",
"    =.-.;.>.,.'.).!.f ~.{.].^.f f f f f f f /.(._.:.<.;.[.}.    ",
"    |.1.2.3.4.5.6.7.f 8.9.0.a.b.c.f f f f f d.e.f.g.h.i.j.k.    ",
"    l.m.n.o.p.q.r.s.f t.u.v.w.x.y.7.f f f f z.A.B.C.D.m.n.E.    ",
"    F.G.H.H.I.J.H.K.f L.M.N.O.P.Q.R.L f f f S.T.U.I.H.V.G.W.    ",
"    X.Y.Y.Y.Z.`. +.+f ++@+#+$+%+&+*+=+f f f -+;+>+Z.Y.Y.Y.,+    ",
"    '+)+)+)+)+!+)+$+f ~+{+]+^+/+(+_+:+<+f f [+}+|+)+)+)+)+1+    ",
"    2+3+3+3+3+4+3+5+f 6+7+8+9+0+a+b+c+d+f f e+f+g+3+3+3+3+h+    ",
"    i+j+j+j+j+k+j+l+m+n+o+p+q+r+s+t+u+u+f f v+w+x+j+j+j+j+y+    ",
"    z+A+A+A+A+B+A+C+D+E+F+G+H+I+J+K+L+M+f f N+O+P+A+A+A+A+Q+    ",
"    R+S+S+S+S+T+U+V+f W+X+f f f f f f f f f Y+Z+`+S+S+S+S+ @    ",
"    .@+@+@+@+@@@#@$@%@&@*@=@-@-@;@;@>@=@-@%@,@'@)@+@+@+@+@!@    ",
"    ~@{@{@{@{@{@{@]@^@^@^@^@^@^@^@^@^@^@^@^@]@/@{@{@{@{@{@(@    ",
"    _@:@:@:@:@:@<@[@[@[@[@[@[@[@[@[@[@[@[@[@[@<@:@:@:@:@:@}@    ",
"    |@1@2@2@2@2@2@2@2@2@2@2@2@2@2@2@2@2@2@2@2@2@2@2@2@2@1@3@    ",
"    4@5@6@7@7@7@7@7@7@7@7@7@7@7@7@7@7@7@7@7@7@7@7@7@7@6@8@8@    ",
"      9@0@a@a@a@a@a@a@a@a@a@a@a@a@a@a@a@a@a@a@a@a@a@a@b@c@d@    ",
"                                                                ",
"                                                                "};
